<svg width="24" height="24" viewBox="0 0 24 24" fill="none" xmlns="http://www.w3.org/2000/svg">
<path d="M20 17C20 17.7956 19.6839 18.5587 19.1213 19.1213C18.5587 19.6839 17.7956 20 17 20C15.38 19.92 14.08 18.62 14 17C14.16 15.39 14.5 13.8 15 12.26C15.54 10.55 15.87 8.79 16 7C15.93 4.27 13.73 2.07 11 2C8.27 2.07 6.07 4.27 6 7C6.15 8.53 6.5 10.03 7 11.5L7.21 12.2C5.1 11.53 2.86 12.7 2.19 14.8C1.5 16.91 2.68 19.16 4.79 19.83C6.9 20.5 9.14 19.33 9.81 17.22C9.94 16.83 10 16.41 10 16C9.84 14.27 9.5 12.56 8.91 10.92C8.47 9.65 8.16 8.34 8 7C8.08 5.38 9.38 4.08 11 4C12.62 4.08 13.92 5.38 14 7C13.84 8.61 13.5 10.2 13 11.74C12.46 13.45 12.13 15.21 12 17C12.07 19.73 14.27 21.93 17 22C18.3261 22 19.5979 21.4732 20.5355 20.5355C21.4732 19.5979 22 18.3261 22 17H20ZM6 18C5.46957 18 4.96086 17.7893 4.58579 17.4142C4.21071 17.0391 4 16.5304 4 16C4 15.4696 4.21071 14.9609 4.58579 14.5858C4.96086 14.2107 5.46957 14 6 14C6.53043 14 7.03914 14.2107 7.41421 14.5858C7.78929 14.9609 8 15.4696 8 16C8 16.5304 7.78929 17.0391 7.41421 17.4142C7.03914 17.7893 6.53043 18 6 18Z" fill="black"/>
</svg>
