<svg width="24" height="24" viewBox="0 0 24 24" fill="none" xmlns="http://www.w3.org/2000/svg">
<path d="M18 5.30001C19.35 4.97001 20.66 4.54001 21.94 4.00001L21.18 2.14001C18.27 3.36001 15.15 4.00001 12 4.00001C8.85 4.00001 5.73 3.38001 2.82 2.17001L2.06 4.00001C3.34 4.54001 4.65 4.97001 6 5.30001V18.7C4.65 19.03 3.34 19.46 2.06 20L2.82 21.86C8.7 19.42 15.3 19.42 21.18 21.86L21.94 20C20.66 19.46 19.35 19.03 18 18.7V5.30001ZM8 18.3V5.69001C9.32 5.89001 10.66 6.00001 12 6.00001C13.34 6.00001 14.68 5.89001 16 5.69001V18.31C13.35 17.9 10.65 17.9 8 18.31V18.3Z" fill="black"/>
</svg>
