<svg width="24" height="24" viewBox="0 0 24 24" fill="none" xmlns="http://www.w3.org/2000/svg">
<path d="M12 1.00151C6.5 1.00151 2 6.13658 2 12.4765C2 15.5174 3.65 18.0275 5.76 18.214H6C7.06087 18.214 8.07828 17.6095 8.82843 16.5335C9.57857 15.4575 10 13.9982 10 12.4765C10 10.9548 9.57857 9.49548 8.82843 8.41949C8.07828 7.3435 7.06087 6.73901 6 6.73901H5.76C7.44 4.45836 9.69 3.2248 12 3.29651C13.77 3.26783 15.5 3.97067 17 5.30464L18.25 3.51167C16.38 1.83345 14.21 0.958483 12 1.00151ZM6 9.60776C6.53043 9.60776 7.03914 9.91001 7.41421 10.448C7.78929 10.986 8 11.7157 8 12.4765C8 14.0687 7.08 15.3453 6 15.3453C4.96 15.3453 4.1 14.2265 4 12.7634C4 12.5769 4 12.3761 4 12.1896C4.1 10.7122 4.97 9.60776 6 9.60776ZM18.24 6.73901H18C16.9391 6.73901 15.9217 7.3435 15.1716 8.41949C14.4214 9.49548 14 10.9548 14 12.4765C14 13.9982 14.4214 15.4575 15.1716 16.5335C15.9217 17.6095 16.9391 18.214 18 18.214H18.24C16.56 20.4947 14.31 21.7282 12 21.6565C10.23 21.6852 8.5 20.9824 7 19.6484L5.76 21.427C7.63 23.1052 9.79 23.9515 12 23.9515C17.5 23.9515 22 18.8165 22 12.4765C22 9.43564 20.35 6.92548 18.24 6.73901ZM18 15.3453C17.4696 15.3453 16.9609 15.043 16.5858 14.505C16.2107 13.967 16 13.2374 16 12.4765C16 10.8844 16.92 9.60776 18 9.60776C19.04 9.60776 19.9 10.7266 20 12.1896C20 12.3761 20 12.5769 20 12.7634C19.9 14.2408 19.03 15.3453 18 15.3453Z" fill="black"/>
</svg>
